<svg width="25" height="24" viewBox="0 0 25 24" fill="none" xmlns="http://www.w3.org/2000/svg">
<path d="M12.5208 23.2452C0.524159 23.2452 0.529194 11.5922 0.539134 11.3919C0.85407 5.04736 6.09798 0 12.5208 0C18.9435 0 24.1874 5.04736 24.5024 11.392C24.5123 11.5923 24.5173 23.2452 12.5208 23.2452Z" fill="#FFE27A"/>
<path d="M12.5244 22.7838C6.10165 22.7838 0.857937 17.7364 0.542937 11.3918C0.532996 11.5921 0.527832 11.7937 0.527832 11.9964C0.527832 18.6219 5.8989 23.993 12.5244 23.993C19.1499 23.993 24.521 18.6219 24.521 11.9964C24.521 11.7936 24.5158 11.5921 24.5059 11.3918C24.1909 17.7364 18.9472 22.7838 12.5244 22.7838Z" fill="#F9CF58"/>
<path d="M12.5246 20.6636C3.09287 20.6636 3.08022 11.3891 3.09287 11.1891C3.40471 6.25134 7.50823 2.34302 12.5246 2.34302C17.541 2.34302 21.6445 6.25134 21.9563 11.1891C21.969 11.389 21.9563 20.6636 12.5246 20.6636Z" fill="#FFBA57"/>
<path d="M12.5243 20.2379C7.50795 20.2379 3.40514 16.3295 3.0933 11.3918C3.08065 11.5918 3.07349 11.7933 3.07349 11.9964C3.07349 17.2159 7.30475 21.4472 12.5243 21.4472C17.7438 21.4472 21.975 17.2159 21.975 11.9964C21.975 11.7932 21.9679 11.5918 21.9552 11.3918C21.6434 16.3295 17.5406 20.2379 12.5243 20.2379Z" fill="#FFAC3E"/>
<path d="M13.0634 17.6101C12.4072 17.6101 11.8753 17.0782 11.8753 16.422V15.7936V9.76366C11.8753 9.76366 11.1644 10.4766 10.3138 10.0488C9.65063 9.71531 9.65063 8.85687 9.65063 8.85687L11.1155 6.38425C11.3294 6.02316 11.718 5.8017 12.1377 5.8017H13.0634C13.7195 5.8017 14.2514 6.33358 14.2514 6.98979V15.7936V16.422C14.2514 17.0782 13.7195 17.6101 13.0634 17.6101Z" fill="#FFE27A"/>
<path d="M11.7122 8.83023C11.3969 9.36257 10.7264 9.59339 10.1672 9.32842C9.94091 9.2212 9.76643 9.0546 9.65043 8.85786C9.32052 9.41595 9.49913 10.1339 10.0484 10.4731C10.6149 10.823 11.3719 10.6141 11.7112 10.0412L11.8755 9.76374V8.87483C11.8755 8.78563 11.7577 8.75342 11.7122 8.83023Z" fill="#F9CF58"/>
<path d="M13.0636 16.9817C12.4074 16.9817 11.8755 16.4498 11.8755 15.7936V17.0029C11.8755 17.6592 12.4074 18.191 13.0636 18.191C13.7197 18.191 14.2517 17.6592 14.2517 17.0029V15.7936C14.2517 16.4498 13.7197 16.9817 13.0636 16.9817Z" fill="#F9CF58"/>
</svg>
