<svg width="25" height="24" viewBox="0 0 25 24" fill="none" xmlns="http://www.w3.org/2000/svg">
<path d="M12.5966 23.0912C0.560344 23.0912 0.550357 11.6452 0.560343 11.444C0.876716 5.07039 6.14456 0 12.5966 0C19.0487 0 24.3166 5.07039 24.6329 11.444C24.6429 11.6452 24.6329 23.0912 12.5966 23.0912Z" fill="#FF9838"/>
<path d="M12.5999 22.888C6.14784 22.888 0.880195 17.8176 0.563757 11.4442C0.553772 11.6454 0.548584 11.8479 0.548584 12.0515C0.548584 18.7073 5.94417 24.1029 12.5999 24.1029C19.2557 24.1029 24.6513 18.7073 24.6513 12.0515C24.6513 11.8479 24.6461 11.6454 24.6361 11.4442C24.3197 17.8176 19.052 22.888 12.5999 22.888Z" fill="#FF8709"/>
<path d="M22.0935 12.0515C22.0935 16.1168 17.8429 20.9618 12.5996 20.9618C7.35628 20.9618 3.10571 15.8503 3.10571 12.0515C3.10571 11.8475 3.11213 11.645 3.12484 11.4441C3.43804 6.48378 7.56035 2.55762 12.5996 2.55762C17.6389 2.55762 21.7612 6.48378 22.0744 11.4441C22.0871 11.645 22.0935 11.8475 22.0935 12.0515Z" fill="#CE7430"/>
<path d="M12.5996 20.3306C7.56041 20.3306 3.43888 16.4043 3.12562 11.4442C3.11291 11.645 3.10571 11.8474 3.10571 12.0515C3.10571 17.2949 7.35628 21.5455 12.5996 21.5455C17.8429 21.5455 22.0935 17.2949 22.0935 12.0515C22.0935 11.8474 22.0863 11.645 22.0736 11.4442C21.7603 16.4043 17.6388 20.3306 12.5996 20.3306Z" fill="#BC672E"/>
<path d="M12.6122 17.6904C10.5675 17.6904 9.26646 16.2809 9.01604 14.6086C8.99328 14.4565 8.98608 14.13 8.98608 14.13C9.16019 13.6864 9.59218 13.3723 10.0975 13.3723C10.7566 13.3723 11.291 13.9066 11.291 14.5658C11.291 15.2943 11.8837 15.887 12.6122 15.887C13.3407 15.887 13.9335 15.2943 13.9335 14.5658C13.9335 14.3468 13.8799 14.14 13.7852 13.958C13.7852 13.958 13.6956 12.8325 12.6761 12.8325C11.6536 12.8325 11.5851 11.4431 11.5851 11.4431C11.793 11.0926 12.1752 10.8577 12.6123 10.8577C13.3408 10.8577 13.9335 10.265 13.9335 9.53646C13.9335 8.80794 13.3408 8.21527 12.6123 8.21527C11.8838 8.21527 11.2911 8.80794 11.2911 9.53646C11.2911 10.1957 10.7567 10.73 10.0976 10.73C9.43843 10.73 8.90405 10.1957 8.90405 9.53646C8.90405 7.49181 10.5676 5.82831 12.6122 5.82831C14.6569 5.82831 16.3204 7.49181 16.3204 9.53646C16.3204 10.506 15.9465 11.3897 15.3352 12.0512C15.8162 12.5716 16.1502 13.2296 16.2708 13.9588C16.2708 13.9588 16.2745 14.359 16.2398 14.5628C15.9439 16.3021 14.6569 17.6904 12.6122 17.6904Z" fill="#FFAA5C"/>
<path d="M12.6119 12.0302C12.1749 12.0302 11.7938 11.7946 11.5859 11.4442C11.4802 11.6222 11.4185 11.8295 11.4185 12.0515C11.4185 12.7107 11.9528 13.2451 12.612 13.2451C13.1214 13.2451 13.5637 13.5354 13.784 13.9589C13.8788 13.7768 13.9332 13.5706 13.9332 13.3515C13.9332 12.6229 13.3404 12.0302 12.6119 12.0302Z" fill="#EA9957"/>
<path d="M12.612 17.0596C10.8347 17.0596 9.34604 15.8025 8.98694 14.1309C8.93396 14.2659 8.90381 14.4124 8.90381 14.5663C8.90381 16.611 10.5673 18.2745 12.612 18.2745C14.6567 18.2745 16.3202 16.611 16.3202 14.5663C16.3202 14.3595 16.3023 14.157 16.2696 13.9594C15.9786 15.7157 14.4497 17.0596 12.612 17.0596Z" fill="#EA9957"/>
</svg>
