<svg width="25" height="24" viewBox="0 0 25 24" fill="none" xmlns="http://www.w3.org/2000/svg">
<path d="M12.5207 23.2014C0.539101 23.2014 0.52916 11.5923 0.539101 11.392C0.854036 5.04736 6.09795 0 12.5207 0C18.9392 0 24.1804 5.04065 24.5017 11.3792C24.5121 11.5837 24.5017 23.2014 12.5207 23.2014Z" fill="#E0E0E0"/>
<path d="M12.5244 22.7837C6.10165 22.7837 0.857937 17.7363 0.542937 11.3917C0.532996 11.592 0.527832 11.7936 0.527832 11.9964C0.527832 18.6219 5.8989 23.993 12.5244 23.993C19.1499 23.993 24.521 18.6219 24.521 11.9964C24.521 11.7935 24.5158 11.592 24.5059 11.3917C24.1909 17.7363 18.9472 22.7837 12.5244 22.7837Z" fill="#CECECE"/>
<path d="M12.5244 20.6967C3.07366 20.6967 3.08005 11.5921 3.0927 11.3922C3.40453 6.4544 7.50805 2.54608 12.5244 2.54608C17.5408 2.54608 21.6443 6.4544 21.9562 11.3922C21.9688 11.5921 21.9562 20.6967 12.5244 20.6967Z" fill="#9E9E9E"/>
<path d="M12.5243 20.2383C7.50795 20.2383 3.40514 16.3299 3.0933 11.3922C3.08065 11.5922 3.07349 11.7937 3.07349 11.9969C3.07349 17.2164 7.30475 21.4477 12.5243 21.4477C17.7438 21.4477 21.975 17.2164 21.975 11.9969C21.975 11.7937 21.9679 11.5922 21.9552 11.3922C21.6434 16.3299 17.5406 20.2383 12.5243 20.2383Z" fill="#898989"/>
<path d="M15.245 17.61H9.82791C9.17177 17.61 8.66513 16.4678 8.71451 16.2067C8.85154 15.4818 9.1741 14.7988 9.6557 14.2295L13.4673 9.72477C13.8239 9.30327 13.6648 8.8491 13.6075 8.71987C13.5378 8.56282 13.3212 8.1956 12.8167 8.17856C12.8021 8.17805 12.787 8.17779 12.7718 8.17779C12.0631 8.17779 11.4866 8.75434 11.4866 9.46303C11.4866 10.1192 10.9547 10.6511 10.2985 10.6511C9.6424 10.6511 9.11045 10.1192 9.11045 9.46303C9.11045 7.44419 10.7529 5.80161 12.7718 5.80161C12.8136 5.80161 12.8551 5.80232 12.8965 5.80374C14.1597 5.84634 15.2643 6.59472 15.7796 7.75667C16.3026 8.93598 16.1116 10.2782 15.2812 11.2596L11.4697 15.7644C11.4557 15.781 11.4419 15.7978 11.4285 15.8148H15.2451C15.6801 15.8148 16.0606 16.0487 16.2676 16.3975C16.3727 16.5748 15.9011 17.61 15.245 17.61Z" fill="#E0E0E0"/>
<path d="M15.2451 16.9822H9.82798C9.3174 16.9822 8.88331 16.6596 8.71529 16.2075C8.66591 16.4686 8.63989 16.735 8.63989 17.0035C8.63989 17.6597 9.17184 18.1916 9.82798 18.1916H15.2451C15.9012 18.1916 16.4332 17.6597 16.4332 17.0035C16.4332 16.7824 16.3717 16.5761 16.2665 16.3988C16.0595 16.7477 15.6801 16.9822 15.2451 16.9822Z" fill="#CECECE"/>
</svg>
